<?xml version="1.0" encoding="utf-8"?>
<!-- Generator: Adobe Illustrator 27.5.0, SVG Export Plug-In . SVG Version: 6.00 Build 0)  -->
<svg version="1.1" id="_x2018_ëîé_x5F_1" xmlns="http://www.w3.org/2000/svg" xmlns:xlink="http://www.w3.org/1999/xlink"
	 x="0px" y="0px" viewBox="0 0 2500 2000" style="enable-background:new 0 0 2500 2000;" xml:space="preserve">
<rect style="fill:#FFFFFF;" width="2500" height="2000"/>
<g>
	<path style="fill:#EBF2F9;" d="M2253.941,1559.284c0,1.512-0.011,3.034-0.022,4.546c-0.011,0.571-0.011,1.153-0.022,1.725
		c0,0.111,0,0.234-0.011,0.347c-0.022,1.657-0.056,3.314-0.101,4.972c-0.045,1.937-0.112,3.862-0.191,5.777
		c-0.056,1.522-0.122,3.045-0.201,4.557c-0.021,0.571-0.056,1.143-0.09,1.725c-0.078,1.5-0.156,3.001-0.257,4.49
		c-0.022,0.414-0.045,0.839-0.078,1.265c-0.079,1.198-0.157,2.385-0.247,3.572c-0.033,0.447-0.066,0.896-0.101,1.343
		c-0.067,0.975-0.146,1.938-0.235,2.911c-0.189,2.419-0.402,4.837-0.638,7.256c-0.067,0.694-0.134,1.399-0.213,2.094
		c-0.537,5.408-1.164,10.771-1.881,16.078c-0.213,1.68-0.448,3.348-0.683,5.017c-0.157,1.119-0.325,2.239-0.493,3.358
		c-0.224,1.501-0.448,2.989-0.694,4.479c-0.213,1.422-0.447,2.844-0.683,4.267c-0.258,1.545-0.515,3.09-0.784,4.635
		c-0.224,1.276-0.447,2.542-0.683,3.807c-0.347,1.915-0.706,3.841-1.075,5.756c-0.123,0.649-0.246,1.299-0.369,1.947
		c-0.246,1.254-0.504,2.509-0.75,3.752c-0.381,1.881-0.773,3.762-1.176,5.643c-0.18,0.873-0.369,1.758-0.571,2.631
		c-0.19,0.907-0.392,1.814-0.593,2.721c-0.325,1.467-0.65,2.945-0.997,4.4c-2.385,10.391-4.982,20.456-7.726,30.119
		c-0.762,2.698-1.534,5.363-2.307,7.994c-0.135,0.448-0.257,0.885-0.392,1.321c-0.37,1.221-0.739,2.43-1.098,3.639
		c-0.112,0.358-0.224,0.728-0.335,1.086c-0.885,2.9-1.792,5.767-2.688,8.577c-0.729,2.239-1.444,4.456-2.173,6.639
		c-0.481,1.434-0.951,2.845-1.422,4.232c-0.481,1.4-0.951,2.788-1.433,4.154c-0.471,1.377-0.952,2.732-1.422,4.075
		c-0.246,0.684-0.482,1.344-0.717,2.016c-0.807,2.229-1.602,4.423-2.385,6.573c-0.393,1.063-0.784,2.115-1.176,3.156
		c-1.311,3.482-2.609,6.853-3.874,10.111c-0.347,0.873-0.694,1.746-1.03,2.608c-3.157,7.927-6.191,15.149-9.002,21.564
		c-0.225,0.504-0.447,1.008-0.66,1.501c-0.258,0.57-0.504,1.131-0.751,1.679c-0.402,0.896-0.795,1.77-1.175,2.632
		c-0.852,1.881-1.669,3.672-2.453,5.374c-0.593,1.276-1.164,2.497-1.713,3.673c-0.414,0.862-0.806,1.701-1.197,2.508
		c-0.28,0.582-0.549,1.143-0.807,1.69c-0.549,1.12-1.063,2.184-1.545,3.18c-0.402,0.807-0.784,1.579-1.143,2.307
		c-1.344,2.698-2.44,4.837-3.246,6.382c-0.157,0.291-0.303,0.561-0.426,0.807c-0.291,0.56-0.538,1.008-0.717,1.344
		c-0.303,0.537-0.447,0.806-0.447,0.806l-178.496-0.146l-37.789-0.022l-854.019-0.672l-225.432-0.179l-450.45-0.358
		c0,0-0.268-0.269-0.772-0.817c-0.381-0.403-0.907-0.963-1.557-1.68c-0.335-0.369-0.705-0.795-1.12-1.254
		c-0.067-0.067-0.123-0.123-0.179-0.19c-0.403-0.459-0.84-0.951-1.31-1.489c-0.302-0.347-0.616-0.716-0.963-1.107
		c-2.363-2.732-5.363-6.315-8.846-10.738c-0.66-0.828-1.332-1.69-2.015-2.575c-0.952-1.22-1.937-2.497-2.945-3.841
		c-0.358-0.47-0.716-0.951-1.086-1.443c-4.142-5.51-8.733-11.914-13.626-19.203c-0.335-0.503-0.683-1.007-1.019-1.522
		c-6.158-9.215-12.764-19.795-19.561-31.72c-0.761-1.332-1.511-2.676-2.273-4.031c-0.761-1.354-1.523-2.731-2.284-4.12
		c-1.724-3.135-3.448-6.359-5.173-9.674c-0.582-1.097-1.153-2.206-1.735-3.336c-0.526-1.02-1.053-2.05-1.579-3.091
		c-2.463-4.87-4.938-9.908-7.401-15.127c-0.459-0.974-0.918-1.97-1.378-2.967c-2.866-6.158-5.71-12.551-8.509-19.18
		c-0.559-1.332-1.12-2.664-1.68-4.008c-0.448-1.075-0.896-2.161-1.343-3.259c-3.326-8.173-6.595-16.683-9.753-25.528
		c-0.571-1.59-1.131-3.202-1.69-4.814c-1.198-3.438-2.374-6.919-3.527-10.457c-0.482-1.444-0.952-2.9-1.422-4.367
		c-0.537-1.68-1.075-3.37-1.601-5.072c-0.526-1.679-1.041-3.381-1.556-5.083c-0.011-0.033-0.022-0.078-0.045-0.123
		c-0.504-1.702-1.019-3.403-1.512-5.128c-0.425-1.422-0.828-2.855-1.243-4.288c-0.157-0.549-0.314-1.098-0.47-1.657
		c-0.437-1.545-0.862-3.09-1.288-4.646c-0.38-1.389-0.761-2.788-1.131-4.199c-0.448-1.656-0.884-3.313-1.31-4.993
		c-0.672-2.587-1.332-5.195-1.971-7.827c-0.548-2.217-1.086-4.444-1.601-6.695c-0.28-1.153-0.537-2.307-0.806-3.459
		c-0.649-2.878-1.299-5.789-1.926-8.723c-0.224-1.074-0.459-2.172-0.683-3.258c-0.941-4.523-1.848-9.104-2.71-13.75
		c-0.291-1.545-0.571-3.102-0.851-4.657c-0.28-1.557-0.549-3.124-0.829-4.703c-0.269-1.567-0.526-3.146-0.795-4.735
		c-1.042-6.326-2.004-12.775-2.889-19.314c-1.097-8.174-2.071-16.515-2.911-25.002c-0.157-1.702-0.325-3.404-0.481-5.117
		c-0.146-1.713-0.302-3.426-0.448-5.15c-0.28-3.448-0.548-6.919-0.784-10.413c-0.358-5.251-0.661-10.547-0.907-15.91
		c-0.079-1.78-0.157-3.571-0.224-5.374c-0.269-6.931-0.437-13.963-0.504-21.072c-0.056-5.732-0.044-11.51,0.034-17.354
		c0.022-1.713,0.056-3.438,0.09-5.162c0.034-1.724,0.078-3.448,0.123-5.184c0.101-3.46,0.212-6.953,0.358-10.458v-0.011
		c0.212-5.117,0.482-10.278,0.795-15.474c0.011-0.246,0.022-0.492,0.044-0.75c0.202-3.247,0.426-6.506,0.672-9.786
		c0.034-0.515,0.067-1.019,0.112-1.534c0.392-5.128,0.839-10.301,1.343-15.518c0.347-3.662,0.728-7.356,1.142-11.063
		c0.202-1.859,0.415-3.718,0.638-5.588c0.213-1.858,0.437-3.728,0.672-5.609c0.94-7.558,1.993-15.216,3.168-22.953
		c0.269-1.791,0.549-3.582,0.84-5.385c1.12-7.043,2.329-14.164,3.661-21.363c0.213-1.176,0.437-2.362,0.661-3.549
		c0.28-1.501,0.571-3.001,0.862-4.513c0.302-1.59,0.616-3.18,0.94-4.781c1.825-9.181,3.83-18.474,6.013-27.879
		c0.246-1.087,0.504-2.173,0.761-3.259c0.459-1.959,0.93-3.93,1.411-5.911c1.008-4.109,2.038-8.241,3.102-12.406
		c0.426-1.646,0.851-3.303,1.288-4.96c0.358-1.366,0.728-2.743,1.098-4.12c0.47-1.792,0.963-3.605,1.455-5.419
		c0.358-1.311,0.728-2.62,1.086-3.931c0.414-1.512,0.839-3.012,1.265-4.523c0.425-1.512,0.862-3.022,1.299-4.534
		c0.425-1.512,0.873-3.034,1.321-4.558c0.257-0.896,0.526-1.791,0.795-2.698c3.605-12.204,7.524-24.576,11.745-37.116
		c0.538-1.602,1.086-3.202,1.635-4.804c0.392-1.153,0.795-2.317,1.198-3.482c0.336-0.996,0.683-1.992,1.03-2.978
		c0.649-1.848,1.299-3.718,1.971-5.576c0.582-1.646,1.164-3.292,1.769-4.949c2.732-7.591,5.587-15.238,8.554-22.941
		c4.691-12.193,9.125-24.263,13.291-36.232c4.075-11.678,7.904-23.244,11.499-34.698c2.531-8.039,4.949-16.022,7.255-23.949
		c120.599-414.105-44.91-687.347,295.87-809.278c366.162-131.011,526.161,158.969,817.373,109.715
		c276.365-46.734,577.185,74.749,580.24,296.116c0.18,11.891-0.515,24.062-2.116,36.512c-1.992,15.496-4.108,31.06-6.27,46.645
		c-13.939,100.635-29.951,202.793-29.895,301.121c0.066,126.588,26.781,246.817,118.828,349.244
		c3.55,3.952,6.965,7.938,10.234,11.969c0.57,0.694,1.131,1.389,1.68,2.094c0.123,0.157,0.246,0.303,0.369,0.46
		c0.561,0.705,1.131,1.422,1.68,2.138c1.557,1.982,3.067,3.976,4.557,5.979c0.739,0.996,1.479,1.993,2.195,2.989
		c1.668,2.307,3.303,4.624,4.881,6.953c0.717,1.041,1.422,2.094,2.128,3.146c0.112,0.168,0.212,0.324,0.324,0.492
		c0.672,1.019,1.333,2.038,1.993,3.057c0.728,1.12,1.434,2.239,2.139,3.37c0.705,1.12,1.399,2.251,2.083,3.382
		c1.131,1.858,2.239,3.717,3.313,5.587c0.414,0.705,0.817,1.41,1.209,2.116c3.449,6.068,6.651,12.193,9.607,18.362
		c0.324,0.672,0.648,1.354,0.963,2.038c0.705,1.489,1.399,2.989,2.071,4.489c0.884,1.938,1.735,3.886,2.563,5.834
		c0.438,1.019,0.862,2.026,1.277,3.045c0.436,1.03,0.851,2.072,1.265,3.113c1.501,3.729,2.923,7.468,4.255,11.219
		c0.402,1.108,0.783,2.217,1.164,3.325c0.325,0.93,0.639,1.858,0.952,2.799c0.201,0.604,0.402,1.21,0.604,1.814
		c0.66,2.026,1.299,4.053,1.926,6.079c0.705,2.307,1.377,4.625,2.037,6.942c1.355,4.825,2.587,9.663,3.718,14.511
		c0.269,1.153,0.538,2.317,0.795,3.471c0.135,0.604,0.269,1.198,0.392,1.803c0.18,0.807,0.348,1.602,0.516,2.407
		c0.381,1.837,0.75,3.684,1.108,5.531c0.134,0.717,0.269,1.434,0.403,2.149c0.168,0.862,0.324,1.735,0.47,2.598
		c0.179,1.008,0.358,2.005,0.526,3.012c0.168,0.997,0.336,1.993,0.492,2.99c0.124,0.783,0.235,1.556,0.359,2.328v0.012
		c0.189,1.254,0.38,2.496,0.56,3.751c0.168,1.176,0.324,2.362,0.481,3.538c0.033,0.146,0.045,0.302,0.066,0.459
		c0.146,1.164,0.291,2.34,0.438,3.504c0.302,2.497,0.582,4.994,0.84,7.491c0.38,3.751,0.705,7.49,0.974,11.229
		c0.101,1.322,0.19,2.643,0.269,3.976c0.078,1.164,0.146,2.329,0.201,3.493c0.067,1.098,0.113,2.205,0.168,3.314
		c0.18,3.852,0.292,7.714,0.358,11.555c0.022,1.008,0.034,2.016,0.045,3.022C2253.931,1556.351,2253.941,1557.817,2253.941,1559.284
		z"/>
	<g>
		<path style="fill:#D5E5FB;" d="M2253.942,1559.28c0,1.512-0.011,3.034-0.021,4.546c-0.012,0.571-0.012,1.153-0.022,1.725
			c0,0.111,0,0.234-0.012,0.347c-0.021,1.657-0.056,3.314-0.101,4.972c-0.045,1.937-0.112,3.862-0.19,5.777
			c-0.056,1.522-0.123,3.045-0.201,4.557c-0.022,0.571-0.057,1.143-0.09,1.725c-0.078,1.5-0.156,3-0.258,4.489
			c-0.022,0.415-0.045,0.84-0.078,1.266c-0.078,1.198-0.156,2.385-0.246,3.571c-0.033,0.448-0.067,0.896-0.102,1.344
			c-0.066,0.975-0.145,1.938-0.234,2.911c-0.19,2.419-0.403,4.837-0.639,7.256c-0.066,0.694-0.134,1.399-0.213,2.094
			c-0.537,5.407-1.164,10.771-1.881,16.078c-0.213,1.68-0.447,3.348-0.683,5.016c-0.156,1.12-0.325,2.239-0.493,3.359
			c-0.224,1.5-0.447,2.989-0.693,4.479c-0.213,1.422-0.448,2.844-0.684,4.266c-0.258,1.546-0.515,3.091-0.783,4.636
			c-0.225,1.276-0.448,2.541-0.684,3.807c-0.347,1.915-0.705,3.841-1.074,5.755c-0.123,0.649-0.246,1.299-0.37,1.948
			c-0.246,1.254-0.504,2.508-0.75,3.751c-0.381,1.881-0.772,3.762-1.176,5.644c-0.179,0.873-0.37,1.758-0.571,2.631
			c-0.189,0.907-0.392,1.814-0.593,2.721c-0.325,1.467-0.649,2.945-0.997,4.4c-2.385,10.391-4.982,20.456-7.726,30.119
			c-0.761,2.698-1.534,5.362-2.306,7.994c-0.135,0.447-0.258,0.885-0.393,1.321c-0.369,1.22-0.738,2.43-1.097,3.639
			c-0.112,0.358-0.225,0.728-0.336,1.086c-0.885,2.899-1.78,5.767-2.688,8.576c-0.728,2.239-1.444,4.457-2.172,6.64
			c-0.481,1.434-0.952,2.845-1.422,4.232c-0.481,1.399-0.952,2.788-1.434,4.154c-0.47,1.377-0.952,2.731-1.422,4.075
			c-0.246,0.684-0.481,1.344-0.717,2.016c-0.806,2.229-1.601,4.423-2.385,6.572c-0.392,1.063-0.784,2.116-1.176,3.157
			c-1.31,3.482-2.608,6.853-3.874,10.111c-0.348,0.873-0.693,1.746-1.029,2.608c-3.158,7.927-6.192,15.149-9.002,21.564
			c-0.225,0.504-0.448,1.008-0.661,1.5c-0.258,0.571-0.504,1.131-0.75,1.68c-0.393,0.896-0.784,1.77-1.176,2.632
			c-0.851,1.881-1.669,3.672-2.452,5.374c-0.594,1.276-1.164,2.497-1.713,3.673c-0.414,0.861-0.807,1.701-1.198,2.508
			c-0.269,0.582-0.538,1.142-0.806,1.69c-0.549,1.12-1.064,2.184-1.546,3.18c-0.403,0.817-0.784,1.579-1.142,2.307
			c-0.862,1.725-1.612,3.214-2.262,4.479c-0.369,0.706-0.694,1.344-0.985,1.903c-0.157,0.291-0.303,0.561-0.426,0.807
			c-0.291,0.56-0.537,1.008-0.716,1.344l-178.944,0.66l-37.788,0.146v-4.042l-854.02,3.202l-225.432,0.84v-3.885l-451.223,1.69
			c-0.38-0.403-0.907-0.963-1.556-1.68c-0.336-0.369-0.716-0.795-1.12-1.254c-0.067-0.067-0.123-0.123-0.179-0.19
			c-0.403-0.459-0.839-0.952-1.31-1.489c-0.302-0.347-0.627-0.728-0.963-1.108c-2.362-2.731-5.363-6.314-8.845-10.737
			c-0.661-0.829-1.332-1.691-2.015-2.575c-0.952-1.221-1.937-2.497-2.945-3.841c-0.358-0.47-0.717-0.951-1.086-1.444
			c-4.143-5.509-8.733-11.913-13.626-19.202c-0.336-0.504-0.683-1.008-1.019-1.522c-6.158-9.215-12.764-19.796-19.56-31.72
			c-0.762-1.321-1.512-2.665-2.273-4.031c-0.762-1.354-1.523-2.731-2.284-4.12c-1.724-3.135-3.449-6.359-5.173-9.674
			c-0.583-1.098-1.153-2.206-1.735-3.337c-0.526-1.019-1.053-2.049-1.579-3.09c-2.463-4.87-4.938-9.909-7.401-15.127
			c-0.459-0.974-0.918-1.971-1.377-2.967c-2.866-6.158-5.71-12.551-8.51-19.18c-0.56-1.332-1.119-2.665-1.679-4.008
			c-0.448-1.075-0.896-2.161-1.344-3.259c-3.325-8.174-6.595-16.683-9.752-25.528c-0.571-1.59-1.131-3.202-1.691-4.814
			c-1.198-3.438-2.374-6.92-3.527-10.458c-0.481-1.444-0.952-2.899-1.422-4.366c-0.538-1.68-1.075-3.37-1.601-5.072
			c-0.526-1.68-1.042-3.381-1.556-5.083c-0.011-0.034-0.022-0.079-0.045-0.123c-0.504-1.702-1.019-3.403-1.512-5.128
			c-0.425-1.422-0.829-2.855-1.243-4.289c-0.157-0.548-0.314-1.097-0.47-1.656c-0.436-1.546-0.862-3.091-1.288-4.646
			c-0.381-1.389-0.761-2.788-1.131-4.199c-0.448-1.657-0.885-3.314-1.31-4.993c-0.672-2.587-1.332-5.195-1.971-7.827
			c-0.548-2.217-1.086-4.445-1.601-6.695c-0.28-1.153-0.538-2.307-0.806-3.46c-0.65-2.877-1.299-5.788-1.926-8.722
			c-0.224-1.075-0.459-2.172-0.683-3.259c-0.94-4.522-1.847-9.103-2.709-13.749c-0.291-1.545-0.571-3.102-0.851-4.658
			c-0.28-1.556-0.548-3.123-0.829-4.702c-0.269-1.567-0.526-3.146-0.795-4.736c-1.052-6.337-2.015-12.775-2.889-19.313
			c-1.108-8.174-2.082-16.516-2.911-25.002c-0.157-1.702-0.325-3.404-0.482-5.117c-0.146-1.713-0.302-3.426-0.448-5.15
			c-0.28-3.448-0.549-6.92-0.784-10.413c-0.37-5.251-0.672-10.547-0.907-15.91c-0.079-1.78-0.157-3.571-0.224-5.374
			c-0.28-6.931-0.448-13.963-0.504-21.072c-0.067-5.722-0.056-11.51,0.034-17.354c0.022-1.713,0.056-3.438,0.089-5.162
			c0.034-1.724,0.079-3.448,0.124-5.184c0.101-3.46,0.212-6.953,0.358-10.458v-0.011c0.202-5.117,0.47-10.278,0.795-15.474
			c0.011-0.246,0.022-0.493,0.045-0.75c0.202-3.247,0.414-6.506,0.672-9.786c0.034-0.515,0.067-1.019,0.112-1.534
			c0.392-5.139,0.84-10.301,1.344-15.519c0.347-3.661,0.728-7.356,1.142-11.063c0.202-1.858,0.414-3.717,0.638-5.587
			c0.213-1.858,0.436-3.729,0.672-5.609c0.94-7.558,1.993-15.216,3.168-22.953c0.269-1.791,0.549-3.583,0.84-5.385
			c1.12-7.043,2.329-14.164,3.661-21.363c0.213-1.176,0.436-2.362,0.661-3.55c0.28-1.5,0.571-3.001,0.862-4.512
			c0.302-1.59,0.616-3.181,0.941-4.781c1.825-9.181,3.829-18.475,6.013-27.88c0.246-1.086,0.503-2.172,0.761-3.258
			c0.459-1.959,0.929-3.93,1.411-5.912c0.997-4.108,2.027-8.252,3.102-12.405c0.426-1.646,0.851-3.304,1.288-4.96
			c0.358-1.366,0.728-2.743,1.097-4.121c0.47-1.791,0.963-3.604,1.455-5.419c0.358-1.31,0.728-2.62,1.087-3.93
			c0.414-1.512,0.839-3.012,1.265-4.523c0.425-1.512,0.862-3.023,1.299-4.534c0.425-1.512,0.873-3.035,1.321-4.558
			c0.258-0.896,0.526-1.791,0.795-2.698c3.605-12.204,7.525-24.576,11.746-37.117c0.537-1.601,1.086-3.202,1.634-4.803
			c0.392-1.153,0.795-2.317,1.198-3.482c0.336-0.996,0.683-1.992,1.03-2.979c0.65-1.847,1.299-3.717,1.971-5.575
			c0.582-1.646,1.164-3.292,1.769-4.949c2.732-7.591,5.587-15.238,8.555-22.941c4.691-12.193,9.125-24.264,13.29-36.232
			l11.499-34.698c2.53-8.039,4.949-16.023,7.255-23.949l63.07,0.011h25.831v116.735h83.717v42.962h46.544v-24.946h43.174v-99.033
			h21.508v-46.209h3.247v46.209h51.605V954.99h5.05v86.606h34.127v-1.21h-0.044v-10.983h0.044V1019h-0.044v-17.31h0.044V990.64
			h-0.044v-17.31h0.044v-11.051h-0.044V944.98h0.044v-11.947h-0.044v-17.31h0.044v-15.205h-0.044V883.22h0.044v-11.465h10.167V858.8
			h1.635v12.955h75.331V858.8h1.623v12.955h13.75v90.524l9.674,0.067v-0.067h-0.079V944.98h0.079v-11.947h-0.079v-17.31h0.079
			v-11.902h-0.079v-17.299h0.079v-0.056h91.353v0.056h15.708c0.806,0.459,1.612,0.907,2.43,1.377v98.799h66.788v129.746h53.934
			V876.502h11.745v-16.773h2.105v16.773h42.603v-16.773h2.105v16.773h60.327v-16.773h2.116v16.773h37.956v-16.773h2.116v16.773
			h15.586v223.965h59.633v-36.221l70.326,0.324v-58.703h14.152v-11.611h1.87v11.611h54.303v0.011h10.85v-11.622h1.87v11.622h13.1
			v116.735h83.729v42.962h46.544v-24.946h43.151v-99.033h21.531v-46.209h3.247v46.209h51.583V954.99h5.071v86.606h34.127v-1.21
			h-0.066v-10.983h0.066V1019h-0.066v-17.31h0.066V990.64h-0.066v-17.31h0.066v-11.051h-0.066V944.98h0.066v-11.947h-0.066v-17.31
			h0.066v-15.205h-0.066V883.22h0.066v-11.465h10.167V858.8h1.635v12.955h75.319V858.8h1.635v12.955h13.738v90.524l9.539,0.067
			h0.146v-0.067h-0.079V944.98h0.079v-11.947h-0.079v-17.31h0.079v-11.902h-0.079v-17.299h0.079v-0.056h91.353v0.056h15.697
			c0.807,0.459,1.612,0.907,2.43,1.377v98.799h21.531c0.067,119.894,24.027,234.076,104.767,332.829
			c4.501,5.521,9.192,10.996,14.063,16.415c3.549,3.952,6.965,7.938,10.233,11.969c0.571,0.694,1.131,1.389,1.68,2.094
			c0.123,0.157,0.247,0.303,0.37,0.459c0.56,0.706,1.131,1.422,1.679,2.139c1.557,1.981,3.068,3.975,4.558,5.979
			c0.738,0.996,1.478,1.992,2.194,2.989c1.668,2.307,3.303,4.624,4.882,6.953c0.716,1.041,1.422,2.094,2.127,3.146
			c0.112,0.168,0.213,0.325,0.324,0.493c0.672,1.019,1.333,2.038,1.994,3.057c0.728,1.12,1.433,2.239,2.139,3.37
			c0.705,1.119,1.398,2.25,2.082,3.381c1.131,1.859,2.239,3.718,3.314,5.588c0.414,0.705,0.816,1.41,1.209,2.116
			c3.448,6.068,6.65,12.192,9.606,18.362c0.325,0.672,0.649,1.354,0.963,2.037c0.706,1.489,1.399,2.99,2.071,4.49
			c0.885,1.938,1.736,3.885,2.564,5.834c0.437,1.019,0.861,2.026,1.276,3.045c0.437,1.03,0.851,2.071,1.265,3.112
			c1.5,3.729,2.923,7.469,4.255,11.22c0.403,1.108,0.784,2.217,1.165,3.325c0.324,0.929,0.638,1.858,0.951,2.799
			c0.201,0.604,0.402,1.21,0.605,1.813c0.66,2.027,1.298,4.054,1.925,6.08c0.705,2.307,1.378,4.624,2.038,6.942
			c1.355,4.825,2.586,9.662,3.717,14.511c0.27,1.153,0.538,2.317,0.795,3.471c0.135,0.604,0.27,1.198,0.393,1.803
			c0.179,0.806,0.347,1.601,0.515,2.407c0.381,1.836,0.75,3.684,1.108,5.531c0.135,0.716,0.269,1.433,0.403,2.149
			c0.168,0.862,0.325,1.735,0.47,2.598c0.18,1.008,0.359,2.004,0.526,3.012c0.169,0.997,0.336,1.993,0.493,2.989
			c0.123,0.784,0.235,1.557,0.357,2.329v0.012c0.191,1.254,0.382,2.496,0.561,3.75c0.168,1.176,0.324,2.363,0.481,3.539
			c0.034,0.146,0.045,0.302,0.067,0.459c0.146,1.164,0.291,2.34,0.437,3.504c0.302,2.497,0.582,4.994,0.84,7.49
			c0.392,3.74,0.705,7.491,0.974,11.23c0.102,1.321,0.19,2.643,0.27,3.975c0.078,1.165,0.145,2.329,0.201,3.494
			c0.066,1.097,0.111,2.205,0.168,3.313c0.179,3.853,0.291,7.715,0.358,11.556c0.022,1.008,0.033,2.015,0.045,3.022
			C2253.932,1556.347,2253.942,1557.813,2253.942,1559.28z"/>
		<g>
			<rect x="1161.406" y="876.508" style="fill:#E2EEFD;" width="134.784" height="37.964"/>
			<g>
				<rect x="1811.425" y="871.755" style="fill:#E2EEFD;" width="62.886" height="23.056"/>
				<rect x="1811.425" y="907.243" style="fill:#E2EEFD;" width="62.886" height="23.056"/>
				<rect x="1811.425" y="943.471" style="fill:#E2EEFD;" width="62.886" height="23.056"/>
				<rect x="1811.425" y="980.277" style="fill:#E2EEFD;" width="62.886" height="23.056"/>
				<rect x="1811.425" y="1015.79" style="fill:#E2EEFD;" width="62.886" height="23.056"/>
			</g>
			<g>
				<rect x="1811.425" y="1054.875" style="fill:#E2EEFD;" width="62.886" height="23.057"/>
				<rect x="1811.425" y="1090.362" style="fill:#E2EEFD;" width="62.886" height="23.057"/>
				<rect x="1811.425" y="1126.592" style="fill:#E2EEFD;" width="62.886" height="23.056"/>
				<rect x="1811.425" y="1163.397" style="fill:#E2EEFD;" width="62.886" height="23.056"/>
				<rect x="1811.425" y="1198.91" style="fill:#E2EEFD;" width="62.886" height="23.057"/>
			</g>
			<g>
				<rect x="776.479" y="871.755" style="fill:#E2EEFD;" width="67.392" height="23.056"/>
				<rect x="776.479" y="907.243" style="fill:#E2EEFD;" width="67.392" height="23.056"/>
				<rect x="776.479" y="943.471" style="fill:#E2EEFD;" width="67.392" height="23.056"/>
				<rect x="776.479" y="980.277" style="fill:#E2EEFD;" width="67.392" height="23.056"/>
				<rect x="776.479" y="1015.79" style="fill:#E2EEFD;" width="67.392" height="23.056"/>
			</g>
			<g>
				<rect x="776.479" y="1054.875" style="fill:#E2EEFD;" width="67.392" height="23.057"/>
				<rect x="776.479" y="1090.362" style="fill:#E2EEFD;" width="67.392" height="23.057"/>
				<rect x="776.479" y="1126.592" style="fill:#E2EEFD;" width="67.392" height="23.056"/>
				<rect x="776.479" y="1163.397" style="fill:#E2EEFD;" width="67.392" height="23.056"/>
				<rect x="776.479" y="1198.91" style="fill:#E2EEFD;" width="67.392" height="23.057"/>
			</g>
			<g>
				<rect x="890.599" y="886.875" style="fill:#E2EEFD;" width="76.593" height="23.056"/>
				<rect x="890.599" y="922.362" style="fill:#E2EEFD;" width="76.593" height="23.056"/>
				<rect x="890.599" y="958.591" style="fill:#E2EEFD;" width="76.593" height="23.057"/>
				<rect x="890.599" y="995.397" style="fill:#E2EEFD;" width="76.593" height="23.056"/>
				<rect x="890.599" y="1030.91" style="fill:#E2EEFD;" width="76.593" height="23.056"/>
			</g>
			<g>
				<rect x="890.599" y="1067.935" style="fill:#E2EEFD;" width="76.593" height="23.056"/>
				<rect x="890.599" y="1103.422" style="fill:#E2EEFD;" width="76.593" height="23.057"/>
				<rect x="890.599" y="1139.65" style="fill:#E2EEFD;" width="76.593" height="23.057"/>
				<rect x="890.599" y="1176.457" style="fill:#E2EEFD;" width="76.593" height="23.056"/>
				<rect x="890.599" y="1211.97" style="fill:#E2EEFD;" width="76.593" height="23.056"/>
			</g>
		</g>
	</g>
	<path style="opacity:0.7;fill:#B9CBF7;" d="M2253.942,1559.28c0,1.512-0.011,3.034-0.021,4.546
		c-0.012,0.571-0.012,1.153-0.022,1.725c0,0.111,0,0.234-0.012,0.347c-0.021,1.657-0.056,3.314-0.101,4.972
		c-0.045,1.937-0.112,3.862-0.19,5.777c-0.056,1.522-0.123,3.045-0.201,4.557c-0.022,0.571-0.057,1.143-0.09,1.725
		c-0.078,1.5-0.156,3-0.258,4.489c-0.022,0.415-0.045,0.84-0.078,1.266c-0.078,1.198-0.156,2.385-0.246,3.571
		c-0.033,0.448-0.067,0.896-0.102,1.344c-0.066,0.975-0.145,1.938-0.234,2.911c-0.19,2.419-0.403,4.837-0.639,7.256
		c-0.066,0.694-0.134,1.399-0.213,2.094c-0.537,5.407-1.164,10.771-1.881,16.078c-0.213,1.68-0.447,3.348-0.683,5.016
		c-0.156,1.12-0.325,2.239-0.493,3.359c-0.224,1.5-0.447,2.989-0.693,4.479c-0.213,1.422-0.448,2.844-0.684,4.266
		c-0.258,1.546-0.515,3.091-0.783,4.636c-0.225,1.276-0.448,2.541-0.684,3.807c-0.347,1.915-0.705,3.841-1.074,5.755
		c-0.123,0.649-0.246,1.299-0.37,1.948c-0.246,1.254-0.504,2.508-0.75,3.751c-0.381,1.881-0.772,3.762-1.176,5.644
		c-0.179,0.873-0.37,1.758-0.571,2.631c-0.189,0.907-0.392,1.814-0.593,2.721c-0.325,1.467-0.649,2.945-0.997,4.4
		c-2.385,10.391-4.982,20.456-7.726,30.119c-0.761,2.698-1.534,5.362-2.306,7.994c-0.135,0.447-0.258,0.885-0.393,1.321
		c-0.369,1.22-0.738,2.43-1.097,3.639c-0.112,0.358-0.225,0.728-0.336,1.086c-0.885,2.899-1.78,5.767-2.688,8.576
		c-0.728,2.239-1.444,4.457-2.172,6.64c-0.481,1.434-0.952,2.845-1.422,4.232c-0.481,1.399-0.952,2.788-1.434,4.154
		c-0.47,1.377-0.952,2.731-1.422,4.075c-0.246,0.684-0.481,1.344-0.717,2.016c-0.806,2.229-1.601,4.423-2.385,6.572
		c-0.392,1.063-0.784,2.116-1.176,3.157c-1.31,3.482-2.608,6.853-3.874,10.111c-0.348,0.873-0.693,1.746-1.029,2.608
		c-3.158,7.927-6.192,15.149-9.002,21.564c-0.225,0.504-0.448,1.008-0.661,1.5c-0.258,0.571-0.504,1.131-0.75,1.68
		c-0.393,0.896-0.784,1.77-1.176,2.632c-0.851,1.881-1.669,3.672-2.452,5.374c-0.594,1.276-1.164,2.497-1.713,3.673
		c-0.414,0.861-0.807,1.701-1.198,2.508c-0.269,0.582-0.538,1.142-0.806,1.69c-0.549,1.12-1.064,2.184-1.546,3.18
		c-0.403,0.817-0.784,1.579-1.142,2.307c-0.862,1.725-1.612,3.214-2.262,4.479h-157.11
		c-61.831-86.619-16.223-206.287,61.208-262.746c53.743-39.188-11.661-94.563-5.225-157.499
		c3.731-36.496,33.668-62.652,73.113-81.463c4.501,5.521,9.192,10.996,14.063,16.415c3.549,3.952,6.965,7.938,10.233,11.969
		c0.571,0.694,1.131,1.389,1.68,2.094c0.123,0.157,0.247,0.303,0.37,0.459c0.56,0.706,1.131,1.422,1.679,2.139
		c1.557,1.981,3.068,3.975,4.558,5.979c0.738,0.996,1.478,1.992,2.194,2.989c1.668,2.307,3.303,4.624,4.882,6.953
		c0.716,1.041,1.422,2.094,2.127,3.146c0.112,0.168,0.213,0.325,0.324,0.493c0.672,1.019,1.333,2.038,1.994,3.057
		c0.728,1.12,1.433,2.239,2.139,3.37c0.705,1.119,1.398,2.25,2.082,3.381c1.131,1.859,2.239,3.718,3.314,5.588
		c0.414,0.705,0.816,1.41,1.209,2.116c3.448,6.068,6.65,12.192,9.606,18.362c0.325,0.672,0.649,1.354,0.963,2.037
		c0.706,1.489,1.399,2.99,2.071,4.49c0.885,1.938,1.736,3.885,2.564,5.834c0.437,1.019,0.861,2.026,1.276,3.045
		c0.437,1.03,0.851,2.071,1.265,3.112c1.5,3.729,2.923,7.469,4.255,11.22c0.403,1.108,0.784,2.217,1.165,3.325
		c0.324,0.929,0.638,1.858,0.951,2.799c0.201,0.604,0.402,1.21,0.605,1.813c0.66,2.027,1.298,4.054,1.925,6.08
		c0.705,2.307,1.378,4.624,2.038,6.942c1.355,4.825,2.586,9.662,3.717,14.511c0.27,1.153,0.538,2.317,0.795,3.471
		c0.135,0.604,0.27,1.198,0.393,1.803c0.179,0.806,0.347,1.601,0.515,2.407c0.381,1.836,0.75,3.684,1.108,5.531
		c0.135,0.716,0.269,1.433,0.403,2.149c0.168,0.862,0.325,1.735,0.47,2.598c0.18,1.008,0.359,2.004,0.526,3.012
		c0.169,0.997,0.336,1.993,0.493,2.989c0.123,0.784,0.235,1.557,0.357,2.329v0.012c0.191,1.254,0.382,2.496,0.561,3.75
		c0.168,1.176,0.324,2.363,0.481,3.539c0.034,0.146,0.045,0.302,0.067,0.459c0.146,1.164,0.291,2.34,0.437,3.504
		c0.302,2.497,0.582,4.994,0.84,7.49c0.392,3.74,0.705,7.491,0.974,11.23c0.102,1.321,0.19,2.643,0.27,3.975
		c0.078,1.165,0.145,2.329,0.201,3.494c0.066,1.097,0.111,2.205,0.168,3.313c0.179,3.853,0.291,7.715,0.358,11.556
		c0.022,1.008,0.033,2.015,0.045,3.022C2253.932,1556.347,2253.942,1557.813,2253.942,1559.28z"/>
	<path style="opacity:0.3;fill:#9DB0F4;" d="M1477.504,1822.214H430.635c-19.953-24.013-73.338-96.062-104.632-212.365
		c-12.193-45.325-21.049-97.395-23.255-155.945c25.551-0.467,257.454-1.504,356.253,113.741
		c104.632,122.056,396.919,18.043,476.538,87.518c79.619,69.486,145.701,131.238,221.927,114.071
		C1433.702,1752.044,1477.504,1822.214,1477.504,1822.214z"/>
	<g>
		<path style="fill:#9DB0F4;" d="M881.623,1276.603h-5.138l0.046-0.403l1.55-13.703c0.052-0.441,0.424-0.775,0.869-0.775
			c0.056,0,0.108,0.004,0.164,0.011c0.289,0.034,0.553,0.159,0.761,0.348c0.243,0.222,0.407,0.531,0.441,0.883L881.623,1276.603z"/>
		<path style="fill:#AFCDFB;" d="M876.981,1273.493l-0.183,0.005l1.283-11.002c0.052-0.441,0.424-0.775,0.869-0.775
			c0.056,0,0.108,0.004,0.164,0.011c0.049,0.041,0.094,0.083,0.136,0.128c0.226,0.244,0.361,0.563,0.365,0.918l0.075,7.91
			C879.704,1272.205,878.498,1273.453,876.981,1273.493z"/>
		<rect x="874.991" y="1337.578" style="fill:#9DB0F4;" width="9.907" height="437.434"/>
		<rect x="874.991" y="1337.578" style="fill:#AEC3FF;" width="4.574" height="437.434"/>
		<rect x="864.166" y="1705.206" style="fill:#9DB0F4;" width="31.554" height="115.739"/>
		<rect x="864.166" y="1705.206" style="fill:#AEC3FF;" width="18.807" height="115.739"/>
		<path style="fill:#9DB0F4;" d="M897.187,1283.203c0,5.406-8.117,9.786-18.132,9.786c-0.765,0-1.516-0.024-2.256-0.077
			c-8.948-0.598-15.876-4.717-15.876-9.709c0-4.991,6.928-9.107,15.876-9.705c0.74-0.053,1.491-0.076,2.256-0.076
			C889.069,1273.422,897.187,1277.802,897.187,1283.203z"/>
		<path style="fill:#AEC3FF;" d="M887.801,1283.203c0,4.356-4.533,8.097-11.002,9.709c-8.948-0.598-15.876-4.717-15.876-9.709
			c0-4.991,6.928-9.107,15.876-9.705C883.268,1275.107,887.801,1278.848,887.801,1283.203z"/>
		<polygon style="fill:#AEC3FF;" points="895.682,1346.205 864.13,1346.205 853.006,1292.641 905.104,1292.641 		"/>
		<rect x="850.192" y="1288.605" style="fill:#9DB0F4;" width="57.726" height="5.138"/>
		<rect x="850.192" y="1288.605" style="fill:#AEC3FF;" width="36.288" height="5.138"/>
		<path style="fill:#819DEA;" d="M869.335,1705.206h20.162l-2.951-8.949c-0.262-0.794-1.003-1.33-1.838-1.33h-9.446
			c-1.024,0-1.948,0.618-2.338,1.565L869.335,1705.206z"/>
		<polygon style="fill:#C5D7FF;" points="856.734,1295.252 901.229,1295.252 892.539,1343.397 866.989,1343.397 		"/>
		<polygon style="fill:#9DB0F4;" points="904.229,1288.605 853.88,1288.605 858.003,1282.734 900.315,1282.734 		"/>
		<polygon style="fill:#AEC3FF;" points="891.83,1288.605 853.88,1288.605 858.003,1282.734 887.916,1282.734 		"/>
	</g>
	<g>
		<path style="fill:#9DB0F4;" d="M1956.535,1008.898h-7.665l0.067-0.602l2.313-20.442c0.077-0.659,0.632-1.157,1.296-1.157
			c0.083,0,0.161,0.005,0.244,0.016c0.43,0.052,0.824,0.239,1.135,0.518c0.363,0.332,0.607,0.793,0.659,1.317L1956.535,1008.898z"/>
		<path style="fill:#AFCDFB;" d="M1949.61,1004.261l-0.273,0.007l1.914-16.413c0.077-0.659,0.632-1.157,1.296-1.157
			c0.083,0,0.161,0.005,0.244,0.016c0.072,0.062,0.14,0.124,0.202,0.192c0.337,0.363,0.539,0.84,0.544,1.369l0.112,11.8
			C1953.671,1002.338,1951.873,1004.201,1949.61,1004.261z"/>
		<rect x="1946.641" y="1099.861" style="fill:#9DB0F4;" width="14.779" height="652.56"/>
		<rect x="1946.641" y="1099.861" style="fill:#AEC3FF;" width="6.824" height="652.56"/>
		<rect x="1930.492" y="1648.286" style="fill:#9DB0F4;" width="47.071" height="172.659"/>
		<rect x="1930.492" y="1648.286" style="fill:#AEC3FF;" width="28.055" height="172.659"/>
		<path style="fill:#9DB0F4;" d="M1979.752,1018.746c0,8.064-12.109,14.598-27.049,14.598c-1.142,0-2.262-0.036-3.366-0.113
			c-13.348-0.893-23.683-7.037-23.683-14.484c0-7.446,10.335-13.586,23.683-14.479c1.104-0.078,2.225-0.114,3.366-0.114
			C1967.643,1004.153,1979.752,1010.688,1979.752,1018.746z"/>
		<path style="fill:#AEC3FF;" d="M1965.75,1018.746c0,6.498-6.762,12.078-16.413,14.484c-13.348-0.893-23.683-7.037-23.683-14.484
			c0-7.446,10.335-13.586,23.683-14.479C1958.988,1006.669,1965.75,1012.249,1965.75,1018.746z"/>
		<polygon style="fill:#AEC3FF;" points="1977.508,1112.732 1930.438,1112.732 1913.844,1032.825 1991.562,1032.825 		"/>
		<rect x="1909.646" y="1026.805" style="fill:#9DB0F4;" width="86.114" height="7.665"/>
		<rect x="1909.646" y="1026.805" style="fill:#AEC3FF;" width="54.134" height="7.665"/>
		<path style="fill:#819DEA;" d="M1938.203,1648.286h30.078l-4.402-13.351c-0.391-1.184-1.496-1.983-2.742-1.983h-14.092
			c-1.527,0-2.905,0.922-3.487,2.335L1938.203,1648.286z"/>
		<polygon style="fill:#C5D7FF;" points="1919.405,1036.72 1985.782,1036.72 1972.818,1108.543 1934.703,1108.543 		"/>
		<polygon style="fill:#9DB0F4;" points="1990.258,1026.805 1915.147,1026.805 1921.298,1018.046 1984.419,1018.046 		"/>
		<polygon style="fill:#AEC3FF;" points="1971.76,1026.805 1915.147,1026.805 1921.298,1018.046 1965.921,1018.046 		"/>
	</g>
	<path style="fill:#A8D29F;" d="M742.303,1820.859l-307.469-0.079c-8.633-9.707-31.53-37.251-55.927-81.791
		c20.266-1.623,44.451-0.526,63.742,9.315c41.282,21.039,35.874,49.03,86.986,38.774c51.112-10.268,93.279-14.567,116.176,0
		c22.886,14.556,39.692,8.767,68.165,8.677C737.578,1795.678,741.608,1814.454,742.303,1820.859z"/>
	<g>
		<polygon style="fill:#D36D1A;" points="779.49,1736.216 491.139,1736.216 477.811,1668.442 765.641,1668.442 		"/>
		<polygon style="fill:#F49540;" points="784.416,1736.216 496.064,1736.216 482.737,1668.442 770.566,1668.442 		"/>
		<path style="fill:#D36D1A;" d="M576.243,1744.514h-78.796c-3.486,0-6.313-2.826-6.313-6.312v-1.984h85.109V1744.514z"/>
		<rect x="575.61" y="1736.218" style="fill:#FFA255;" width="261.884" height="8.296"/>
		<g>
			<path style="fill:#FFA255;" d="M508.349,1744.514l-4.937,19.412c0,0.012,0,0.012,0,0.023l-14.614,57.505
				c-0.197,0.754-0.869,1.275-1.634,1.275c-1.483,0-2.608-1.356-2.318-2.805l13.038-67.078l1.622-8.333H508.349z"/>
		</g>
		<path style="fill:#D36D1A;" d="M503.412,1763.926c0.475-9.932-5.528-11.079-5.528-11.079l1.622-8.333h8.842L503.412,1763.926z"/>
		<g>
			<path style="fill:#FFA255;" d="M570.899,1744.514l-4.938,19.412c0,0.012,0,0.012,0,0.023l-14.614,57.505
				c-0.197,0.754-0.869,1.275-1.634,1.275c-1.484,0-2.608-1.356-2.318-2.805l13.038-67.078l1.622-8.333H570.899z"/>
		</g>
		<path style="fill:#D36D1A;" d="M565.962,1763.926c0.476-9.932-5.528-11.079-5.528-11.079l1.622-8.333h8.843L565.962,1763.926z"/>
		<g>
			<path style="fill:#FFA255;" d="M813.596,1744.514l4.937,19.412c0,0.012,0,0.012,0,0.023l14.614,57.505
				c0.197,0.754,0.869,1.275,1.634,1.275c1.483,0,2.607-1.356,2.318-2.805l-13.038-67.078l-1.622-8.333H813.596z"/>
		</g>
		<path style="fill:#D36D1A;" d="M818.533,1763.926c-0.475-9.932,5.528-11.079,5.528-11.079l-1.622-8.333h-8.842L818.533,1763.926z"
			/>
		<g>
			<path style="fill:#FFA255;" d="M751.046,1744.514l4.937,19.412c0,0.012,0,0.012,0,0.023l14.614,57.505
				c0.197,0.754,0.869,1.275,1.634,1.275c1.483,0,2.608-1.356,2.317-2.805l-13.038-67.078l-1.623-8.333H751.046z"/>
		</g>
		<path style="fill:#D36D1A;" d="M755.983,1763.926c-0.476-9.932,5.528-11.079,5.528-11.079l-1.623-8.333h-8.842L755.983,1763.926z"
			/>
	</g>
	<path style="fill:#A8D29F;" d="M617.349,1480.427c-11.656,6.752-25.36,11.04-40.296,12.07
		c-65.455,4.087-88.162,28.428-141.144,79.978c-31.238,30.342-75.476,34.541-109.906,34.709
		c-25.248-92.204-36.142-212.69-3.572-359.545c13.402,9.315,27.185,19.527,41.472,29.044c36.008,24.14,75.073,43.768,117.833,33.344
		c42.95-10.436,76.092-9.819,102.068-1.434c33.142,10.425,54.83,33.131,70.371,60.954
		C675.661,1407.806,657.04,1457.721,617.349,1480.427z"/>
	<path style="fill:#F8FCFF;" d="M1689.432,430.783c0-16.202,13.135-29.337,29.337-29.337s29.338,13.135,29.338,29.337
		c0,16.203-13.136,29.337-29.338,29.337S1689.432,446.986,1689.432,430.783z"/>
	<path style="fill:#F8FCFF;" d="M563.848,396.169c0,0,29.551-47.491,100.216-42.214c0,0,102.592-79.154,211.994-10.553
		c0,0,116.293-16.998,202.417,14.717c57.421,21.145,76.387,43.327,76.387,43.327L563.848,396.169z"/>
	<path style="fill:#F8FCFF;" d="M590.72,725.492c0,0,15.61-32.046,52.94-28.485c0,0,54.195-53.412,111.988-7.121
		c0,0,61.433-11.47,106.929,9.931c30.334,14.269,40.353,29.237,40.353,29.237L590.72,725.492z"/>
	<path style="opacity:0.5;fill:#F8FCFF;" d="M916.913,518.218c0,0,19.328-31.062,65.547-27.61c0,0,67.102-51.772,138.657-6.903
		c0,0,76.063-11.118,132.393,9.626c37.557,13.83,49.962,28.338,49.962,28.338L916.913,518.218z"/>
	<path style="opacity:0.5;fill:#F8FCFF;" d="M2090.605,638.937c-1.992,15.496-4.108,31.06-6.27,46.645l-484.846-4.333
		c0,0,41.248-66.306,139.901-58.938c0,0,143.227-110.5,295.959-14.735c0,0,22.685-3.315,57.371-5.15
		C2092.901,614.315,2092.207,626.486,2090.605,638.937z"/>
	<g>
		<path style="fill:#F99746;" d="M1694.468,1782.146c0,0-14.746-53.475,25.457-105.496s108.355-38.036,108.355-38.036
			s9.498,14.646-9.326,26.226c-18.823,11.579-84.424-11.615-100.948,102.324C1718.006,1767.164,1710.107,1790.723,1694.468,1782.146
			z"/>
		<path style="fill:#ED7D2B;" d="M1184.369,1012.592c0-13.388,10.853-24.24,24.24-24.24s24.24,10.852,24.24,24.24
			c0,13.387-10.853,24.239-24.24,24.239S1184.369,1025.979,1184.369,1012.592z"/>
		<path style="fill:#9DB0F4;" d="M1771.297,1750.378c0-18.788,15.23-34.02,34.019-34.02s34.019,15.231,34.019,34.02
			s-15.23,34.019-34.019,34.019S1771.297,1769.166,1771.297,1750.378z"/>
		<circle style="fill:#9DB0F4;" cx="1069.417" cy="1724.417" r="52.067"/>
		<g>
			
				<rect x="815.68" y="1327.418" transform="matrix(0.1357 -0.9908 0.9908 0.1357 -357.5555 2265.7498)" style="fill:#131375;" width="608.303" height="20.777"/>
		</g>
		<g>
			<polygon style="fill:#ED7D2B;" points="1100.106,1055.912 1100.106,1032.622 1206.052,1009.453 1213.016,1029.027 			"/>
		</g>
		<g>
			<path style="fill:#060633;" d="M1071.117,1823.242c-53.459,0-96.952-43.491-96.952-96.951c0-53.459,43.492-96.951,96.952-96.951
				s96.952,43.492,96.952,96.951C1168.069,1779.751,1124.577,1823.242,1071.117,1823.242z M1071.117,1648.947
				c-42.647,0-77.343,34.696-77.343,77.344c0,42.646,34.696,77.344,77.343,77.344s77.343-34.697,77.343-77.344
				C1148.46,1683.644,1113.765,1648.947,1071.117,1648.947z"/>
		</g>
		<g>
			<path style="fill:#060633;" d="M1805.315,1821.23c-39.068,0-70.853-31.785-70.853-70.853c0-39.068,31.784-70.853,70.853-70.853
				c39.067,0,70.853,31.784,70.853,70.853C1876.168,1789.445,1844.383,1821.23,1805.315,1821.23z M1805.315,1695.108
				c-30.477,0-55.27,24.793-55.27,55.27s24.793,55.27,55.27,55.27c30.476,0,55.27-24.793,55.27-55.27
				S1835.791,1695.108,1805.315,1695.108z"/>
		</g>
		<path style="fill:#131375;" d="M1700.743,1790.984h-481.237c-8.597,0-15.63-7.033-15.63-15.63v-7.48
			c0-8.597,7.033-15.63,15.63-15.63h481.237c8.597,0,15.63,7.033,15.63,15.63v7.48
			C1716.373,1783.951,1709.34,1790.984,1700.743,1790.984z"/>
		<g>
			<path style="fill:#131375;" d="M1706.345,1791.204c-3.261,0-6.301-2.064-7.39-5.328c-1.361-4.081,0.842-8.493,4.925-9.856
				l98.97-33.032c4.076-1.361,8.493,0.843,9.856,4.925c1.361,4.081-0.842,8.493-4.925,9.856l-98.969,33.032
				C1707.994,1791.073,1707.162,1791.204,1706.345,1791.204z"/>
		</g>
		<polygon style="fill:#131375;" points="1097.937,1487.713 1263.81,1753.074 1305.928,1753.074 1106.744,1438.397 		"/>
		<path style="fill:#060633;" d="M1107.395,1641.157l-15.214-4.635l-15.883,52.128c-5.264,17.276-21.877,28.531-39.874,27.015
			l-50.358-4.246l-1.335,15.849l50.518,4.26c20.924,1.764,39.832,13.18,51.138,30.875l26.732,41.838l13.403-8.564l-25.823-40.414
			c-12.06-18.875-15.246-42.086-8.717-63.512L1107.395,1641.157z"/>
		<path style="fill:#060633;" d="M1828.127,1696.098l-9.886-3.012l-10.32,33.872c-3.421,11.226-14.215,18.539-25.909,17.553
			l-32.721-2.759l-0.868,10.298l32.825,2.769c13.597,1.146,25.882,8.563,33.228,20.061l17.37,27.186l8.709-5.564l-16.779-26.261
			c-7.836-12.265-9.906-27.346-5.664-41.268L1828.127,1696.098z"/>
		<path style="fill:#F99746;" d="M1796.102,1749.116c0-4.305,3.489-7.794,7.794-7.794c4.304,0,7.793,3.489,7.793,7.794
			c0,4.304-3.489,7.793-7.793,7.793C1799.591,1756.909,1796.102,1753.42,1796.102,1749.116z"/>
		<path style="fill:#F99746;" d="M1061.624,1724.417c0-4.304,3.489-7.793,7.793-7.793s7.793,3.489,7.793,7.793
			c0,4.305-3.489,7.794-7.793,7.794S1061.624,1728.722,1061.624,1724.417z"/>
		<path style="fill:#F99746;" d="M1010.013,1623.933c0,0,45.444-31.811,107.929-11.36c62.485,20.449,72.142,89.349,72.142,89.349
			s-10.618,13.856-27.834,0c-17.217-13.856-17.342-83.437-130.232-60.831C1032.017,1641.09,1007.173,1641.542,1010.013,1623.933z"/>
		<path style="fill:#829CE8;" d="M1441.965,433.311c0,0-78.476,126.18-78.476,160.427c0,34.247,24.994,73.631,24.994,73.631
			l79.393-65.921l39.519-70.886L1441.965,433.311z"/>
		<path style="fill:#ED975D;" d="M1503.961,618.388c0,0-26.485,47.742-73.82,39.239c0,0-13.951-21.021-17.396-37.858
			c-0.423-2.073-0.844-4.079-1.251-5.985c-3.964-18.945-6.696-29.475-6.696-29.475s0.012-0.007,0.043-0.018
			c1.837-1.227,61.796-40.806,62.179-38.571C1475.984,597.301,1503.961,618.388,1503.961,618.388z"/>
		<path style="fill:#FFB27D;" d="M1384.191,587.229c0,0,72.809,24.373,87.289-21.203c14.479-45.575,33.63-73.124-12.245-90.612
			c-45.874-17.488-60.476-2.982-69.009,11.055C1381.693,500.506,1365.625,579.714,1384.191,587.229z"/>
		<path style="fill:#A9453D;" d="M1301.62,1753.039h119.967c1.147-0.225,2.019-0.476,2.546-0.739
			c8.01-4.012,5.502-34.676,4.539-44.149c-0.185-1.755-0.316-2.784-0.316-2.784s-42.184-33.739-47.989-7.904
			c-0.185,0.806-0.396,1.597-0.62,2.376v0.013c-7.323,24.173-40.06,35.151-58.968,38.212
			C1306.33,1740.411,1302.583,1748.829,1301.62,1753.039z"/>
		<path style="fill:#A9453D;" d="M1536.455,1753.039h119.967c1.148-0.225,2.019-0.476,2.547-0.739
			c8.009-4.012,5.502-34.676,4.539-44.149c-0.186-1.755-0.317-2.784-0.317-2.784s-42.184-33.739-47.989-7.904
			c-0.185,0.806-0.396,1.597-0.619,2.376v0.013c-7.324,24.173-40.06,35.151-58.968,38.212
			C1541.166,1740.411,1537.419,1748.829,1536.455,1753.039z"/>
		<path style="fill:#F99746;" d="M1325.8,1061.231c0,0,6.406,79.932,13.937,176.014c10.234,130.52,22.541,290.842,23.76,321.213
			c2.104,52.739,16.25,141.38,16.25,141.38s8.525,13.976,48.609,5.528c0,0,41.521-118.64,51.724-246.059
			c0.158-2.089,0.316-4.192,0.475-6.296c9.491-129.713,24.25-402.854,24.25-402.854L1325.8,1061.231z"/>
		<path style="fill:#ED7D2B;" d="M1325.8,1061.231c0,0,6.406,79.932,13.937,176.014l140.343,222.063
			c0.158-2.089,0.316-4.192,0.475-6.296c9.491-129.713,24.25-402.854,24.25-402.854L1325.8,1061.231z"/>
		<path style="fill:#F99746;" d="M1355.057,1070.724c0,0,78.68,301.312,154.609,437.352
			c75.93,136.041,103.047,196.599,103.047,196.599s46.523,12.557,50.478,0.692c0,0-39.769-323.788-70.59-399.515
			c-15.963-39.222-23.412-159.715-24.994-197.68c-1.581-37.965-28.263-89.649-28.263-89.649L1355.057,1070.724z"/>
		<path style="fill:#9DB0F4;" d="M1329.138,1188.125c145.993,72.236,305.82,48.852,305.498,43.881
			c-0.263-5.432-60.828-327.54-81.798-421.489c-19.525-87.479-45.93-164.128-70.366-181.639
			c-3.212-2.196-22.441,7.679-40.124,16.849c-16.32,8.453-32.805,9.684-48.448,6.855c0,0-7.938,10.553-12.611,21.974
			c-9.806,23.965-61.075,187.578-61.754,215.893c-0.023,1.683-0.062,3.367-0.099,5.051c-0.18,8.19-0.327,16.407-0.451,24.578
			C1318.848,929.404,1327.506,1187.318,1329.138,1188.125z"/>
		<path style="fill:#7A96E5;" d="M1323.685,1065.263c143.595-80.528,129.371-265.907,129.371-265.907l-134.071,120.721
			c-0.137,9.327-0.222,18.591-0.244,27.751c-0.01,6.88,0.019,13.699,0.094,20.4l0.021,0.896c-0.18,2.494-0.127,5.209-0.065,7.696
			C1318.863,988.051,1323.543,1055.035,1323.685,1065.263z"/>
		<path style="fill:#FFB27D;" d="M1178.905,1009.988c-7.138-12.362-1.552-17.727-1.552-17.727s118.581-87.097,127.941-95.976
			c9.359-8.879,55.892-153.423,55.892-153.423s16.286-58.576,50.373-64.042c29.621-4.749,49.525,10.446,62.315,27.936
			c15.241,20.842,15.936,48.962,2.08,70.75c-31.099,48.907-93.781,145.957-111.717,162.314
			c-39.92,36.407-168.559,80.199-168.559,80.199S1184.511,1019.699,1178.905,1009.988z"/>
		<path style="fill:#233862;" d="M1467.764,578.464c0.956,0.745,16.517,7.143,52.425-50.471c5.637-9.044,10.776-29.263,1.353-48.416
			c-9.422-19.153-47.456-37.042-79.576-46.266c-32.12-9.223-41.669,8.448-51.075,26.226c-9.876,18.662-34.692,32.484-34.692,32.484
			c26.738,18.353,62.774-1.035,74.196,3.756c11.422,4.791,13.864,23.714,14.197,29.739c0.334,6.024,1.233,11.088,16.517,7.147
			c15.283-3.941,4.753,21.581,1.92,26.386C1463.027,559.049,1459.781,572.244,1467.764,578.464z"/>
		<path style="fill:#9DB0F4;" d="M1441.965,433.311c0,0,40.139,68.623,41.423,97.944c1.284,29.321-89.488,121.325-89.488,121.325
			s77.831,20.43,109.864,0c0,0,74.068-103.181,74.068-122.018C1577.832,511.725,1534.452,434.424,1441.965,433.311z"/>
		<path style="fill:#7A96E5;" d="M1371.119,1058.428c0,0,70.467,11.501,114.732,5.061l-0.992,70.814l-56.374,21.585l-57.366-31.811
			V1058.428z"/>
		<path style="fill:#FFB27D;" d="M1177.078,992.261c0,0-45.437,2.302-54.525,10.823c-9.089,8.521-26.978,24.718-13.473,27.576
			l32.616-7.134c16.661,3.935,22.695,12.972,33.302,7.341c10.607-5.63,22.215-11.811,22.215-11.811L1177.078,992.261z"/>
		<path style="fill:#F99746;" d="M1068.26,1041.022c0-13.387,10.853-24.239,24.24-24.239s24.24,10.853,24.24,24.239
			c0,13.388-10.853,24.24-24.24,24.24S1068.26,1054.41,1068.26,1041.022z"/>
		<path style="fill:#F99746;" d="M1725.218,870.377c-0.224,3.549-0.66,6.662-1.332,9.226
			c-9.518,36.389-132.68,63.865-146.474,50.698c-2.587-2.463-5.251-6.035-7.983-10.525c-35.067-57.651-79.54-267.565-62.029-255.126
			c0,0,32.728-10.222,59.6-12.775l4.747-0.37l0.168-0.011c8.51-0.504,16.135-0.067,21.531,1.937
			c22.908,8.498,41.192,68.299,41.192,68.299s18.866-2.676,35.684-0.616c2.071,0.247,4.109,0.571,6.08,0.985
			c0.011,0,0.011,0,0.011,0c5.15,1.075,9.831,2.732,13.324,5.229C1704.112,737.597,1727.703,830.998,1725.218,870.377z"/>
		<path style="fill:#F99746;" d="M1522.907,661.661c0,0-42.232-40.353-112.928-25.97l-16.08,16.89c0,0,70.962-17.063,110.062,20.259
			L1522.907,661.661z"/>
		<path style="fill:#F99746;" d="M1400.118,853.851c0,0,42.225,74.979,157.498,37.751l11.813,28.175
			c0,0-137.059,38.975-183.341-36.493L1400.118,853.851z"/>
		<path style="fill:#9DB0F4;" d="M1415.302,667.37c0,0-29.26-3.336-40.053,23.93c-7.705,19.466-24.935,110.992-63.83,177.726
			c-15.586,26.741-74.985,78.937-99.686,97.896c0,0,8.99,28.983,28.354,36.698c0,0,93.677,9.5,155.215-60.559
			c17.609-19.882,122.317-190.484,100.731-225.703S1415.302,667.37,1415.302,667.37z"/>
		<g>
			<path style="fill:#ED7D2B;" d="M1571.914,651.495c-4.188,4.031-12.372,14.769-9.651,35.202
				c3.65,27.42,12.462,47.037,12.552,47.238l-3.057,1.422c-0.09-0.201-9.104-20.243-12.82-48.201
				c-2.43-18.239,3.337-29.425,8.062-35.28L1571.914,651.495z"/>
		</g>
		<g>
			<path style="fill:#ED7D2B;" d="M1691.035,871.239l-3.202,1.019c-1.399-4.479-34.116-110.018-31.866-129.477
				c1.422-12.26,8.733-18.575,14.354-21.666c2.071,0.247,4.109,0.571,6.08,0.985c-3.931,1.232-15.351,6.058-17.098,21.083
				C1657.132,761.916,1690.699,870.142,1691.035,871.239z"/>
		</g>
		<path style="fill:#ED7D2B;" d="M1544.181,824.74l29.104,82.503c0,0,40.315,1.209,64.947-15.641l-26.871-84.776
			C1611.36,806.825,1588.967,823.993,1544.181,824.74z"/>
		<path style="fill:#ED7D2B;" d="M1725.218,870.377c-0.224,3.549-0.66,6.662-1.332,9.226
			c-9.518,36.389-132.68,63.865-146.474,50.698c-2.587-2.463-5.251-6.035-7.983-10.525
			C1570.537,919.743,1640.449,917.313,1725.218,870.377z"/>
		<path style="fill:#EF873A;" d="M1544.181,824.74l8.551,24.24l38.475,2.632l27.646-21.15l-7.491-23.636
			C1611.36,806.825,1567.973,815.783,1544.181,824.74z"/>
		<path style="fill:#131375;" d="M1585.421,844.334c0-1.34,1.087-2.426,2.427-2.426s2.426,1.086,2.426,2.426
			c0,1.34-1.086,2.426-2.426,2.426S1585.421,845.674,1585.421,844.334z"/>
	</g>
	<path style="fill:#2E3552;" d="M2274.143,1828.575H336.482c-1.481,0-2.693-1.212-2.693-2.693v-2.325
		c0-1.481,1.212-2.693,2.693-2.693h1937.66c1.48,0,2.692,1.212,2.692,2.693v2.325
		C2276.835,1827.363,2275.623,1828.575,2274.143,1828.575z"/>
</g>
</svg>
