<?xml version="1.0" encoding="utf-8"?>
<!-- Generator: Adobe Illustrator 27.5.0, SVG Export Plug-In . SVG Version: 6.00 Build 0)  -->
<svg version="1.1" xmlns="http://www.w3.org/2000/svg" xmlns:xlink="http://www.w3.org/1999/xlink" x="0px" y="0px"
	 viewBox="0 0 600 600" style="enable-background:new 0 0 600 600;" xml:space="preserve">
<g id="background">
	<rect style="fill:#FFFFFF;" width="600" height="600"/>
</g>
<g id="objects">
	<g>
		<ellipse style="fill:#DDDDDD;" cx="300" cy="543" rx="223" ry="7"/>
		<g>
			<g>
				<path style="fill:#323A56;" d="M460.769,476.431c-9.715,5.763-16.217,16.363-16.217,28.472
					c0,18.281,14.815,33.096,33.096,33.096s33.096-14.815,33.096-33.096c0-15.399-10.513-28.336-24.744-32.035L460.769,476.431z"/>
				<path style="fill:#272C44;" d="M444.552,504.904c0,18.281,14.815,33.096,33.096,33.096c7.271,0,13.998-2.346,19.459-6.317
					c-17.327,4.429-27.898-7.203-33.086-21.912c-6.863-19.429,6.843-31.578,12.401-35.549l-15.653,2.21
					C451.055,482.194,444.552,492.795,444.552,504.904z"/>
				<polygon style="fill:#DDDDDD;" points="436.192,200.066 427.089,100.946 448.368,98.561 457.405,196.964 				"/>
				<polygon style="fill:#BABABA;" points="427.089,100.946 436.19,200.069 445.964,198.638 437.797,99.749 				"/>
				<path style="fill:#323A56;" d="M154.659,515.611C150.201,528.636,137.858,538,123.325,538
					c-18.281,0-33.096-14.815-33.096-33.096c0-18.281,14.815-33.096,33.096-33.096c14.533,0,26.876,9.364,31.334,22.389V515.611z"/>
				<polygon style="fill:#1D94E9;" points="436.19,200.069 436.736,205.978 460.75,467.476 482.068,465.52 480.13,444.377 
					457.401,196.964 				"/>
				<path style="fill:#DDDDDD;" d="M458.083,467.719l11.723,37.986c1.191,3.858,4.756,6.489,8.794,6.489l0,0
					c5.301,0,9.506-4.467,9.186-9.759l-2.252-37.238L458.083,467.719z"/>
				<polygon style="fill:#2758A0;" points="454.277,396.962 396.972,494.196 421.833,494.196 457.625,433.455 				"/>
				<path style="fill:#1D94E9;" d="M123.325,515.611h303.706v-21.415H123.325c-5.914,0-10.708,4.794-10.708,10.708v0
					C112.618,510.818,117.412,515.611,123.325,515.611z"/>
				<path style="fill:#BABABA;" d="M414.503,464.458c-1.626-0.292-3.29-0.438-4.994-0.438c-16.1,0-29.202,14.076-29.202,30.176
					h-16.548c0-25.27,20.481-46.724,45.751-46.724c4.799,0,9.423,0.74,13.764,2.103L414.503,464.458z"/>
				<path style="fill:none;stroke:#1D2033;stroke-width:7;stroke-linecap:round;stroke-linejoin:round;stroke-miterlimit:10;" d="
					M171.022,494.196l-20.68-31.434c-2.282-3.468-6.154-5.556-10.306-5.556h-31.095c-2.669,0-5.266,0.866-7.401,2.467l-12.285,9.214
					"/>
				<path style="fill:#2758A0;" d="M112.644,504.147c-0.223,3.258,1.007,6.229,3.108,8.33c1.937,1.937,4.614,3.134,7.573,3.134
					h303.706V505.43c-8.246,0.163-200.763,1.48-262.328,1.898c-6.731,0.046-10.041-8.167-5.167-12.81h0l0.117-0.321h-36.004
					C117.97,494.196,113.032,498.482,112.644,504.147z"/>
				<path style="fill:#2758A0;" d="M436.736,205.978l24.014,261.498l21.318-1.957l-1.937-21.143
					c-5.247-0.01-13.803-7.525-17.083-53.363c-4.867-68.139-16.548-185.922-16.548-185.922L436.736,205.978z"/>
				<polygon style="fill:#DDDDDD;" points="432.024,191.593 433.845,211.061 461.295,208.54 459.475,189.071 				"/>
				<circle style="fill:#323A56;" cx="435.791" cy="82.442" r="20.442"/>
				<path style="fill:#272C44;" d="M415.35,82.442c0,11.292,9.15,20.442,20.442,20.442c6.775,0,12.771-3.29,16.49-8.362
					c-1.538,0.38-3.154,0.574-4.809,0.574c-11.292,0-20.442-9.15-20.442-20.442c0-4.517,1.47-8.693,3.952-12.08
					C422.008,64.735,415.35,72.805,415.35,82.442z"/>
				<polygon style="fill:#BABABA;" points="432.024,191.591 433.845,211.059 444.357,210.095 443.014,190.578 				"/>
				<path style="fill:#BABABA;" d="M458.083,467.719l11.72,37.983c1.197,3.864,4.76,6.493,8.8,6.493
					c5.101,0,9.199-4.157,9.199-9.199c0-0.185-0.01-0.37-0.019-0.565l-0.224-3.757c-4.351,1.441-12.664-0.35-15.623-32.23
					L458.083,467.719z"/>
				<path style="fill:#272C44;" d="M90.229,504.904c0,18.281,14.815,33.096,33.096,33.096c7.271,0,13.998-2.346,19.459-6.317
					c-17.327,4.429-27.898-7.203-33.086-21.912c-6.863-19.429,6.843-31.578,12.401-35.549l-15.653,2.21
					C96.731,482.194,90.229,492.795,90.229,504.904z"/>
			</g>
			<path style="fill:#1D2033;" d="M489.343,470.222l-0.317-5.235c-0.057-0.946-0.495-1.828-1.213-2.444
				c-0.714-0.614-1.639-0.911-2.581-0.83l-22.942-249.818c0.659-0.196,1.251-0.583,1.696-1.119c0.594-0.715,0.879-1.636,0.792-2.562
				l-1.82-19.468c-0.156-1.68-1.472-2.965-3.086-3.15l-7.855-85.569c4.74-4.377,7.716-10.639,7.716-17.584
				c0-13.202-10.74-23.942-23.942-23.942c-13.201,0-23.941,10.74-23.941,23.942c0,8.823,4.802,16.542,11.926,20.694l7.804,84.995
				c-0.875,0.113-1.681,0.544-2.247,1.225c-0.594,0.715-0.879,1.636-0.792,2.562l1.82,19.468c0.169,1.814,1.694,3.174,3.48,3.174
				c0.055,0,0.111-0.005,0.167-0.008l16.678,181.607l-29.067,49.321c-3.947-0.996-8.007-1.508-12.11-1.508
				c-13.117,0-25.498,5.309-34.861,14.947c-8.453,8.702-13.433,19.877-14.254,31.776H172.909l-19.644-29.856
				c-2.937-4.467-7.882-7.133-13.229-7.133h-31.095c-3.405,0-6.779,1.125-9.501,3.167l-12.285,9.214
				c-1.547,1.159-1.86,3.354-0.7,4.899c1.159,1.547,3.354,1.862,4.899,0.7l12.286-9.214c1.519-1.14,3.4-1.767,5.301-1.767h31.095
				c2.982,0,5.742,1.487,7.381,3.979l17.112,26.01h-7.468c-5.683-13.489-18.934-22.389-33.737-22.389
				c-20.179,0-36.596,16.417-36.596,36.597c0,20.179,16.417,36.596,36.596,36.596c14.804,0,28.055-8.9,33.737-22.389H427.03
				c1.933,0,3.5-1.567,3.5-3.5v-21.415c0-1.635-1.127-2.997-2.642-3.382l27.245-46.236l1.821,19.833
				c-0.719,0.246-1.348,0.717-1.779,1.36c-0.587,0.877-0.747,1.972-0.437,2.979l1.911,6.192
				c-9.681,6.802-15.598,18.035-15.598,29.96c0,20.179,16.417,36.596,36.597,36.596c20.179,0,36.596-16.417,36.596-36.596
				C514.244,489.099,504.125,475.191,489.343,470.222z M457.77,396.757c0-0.008-0.002-0.015-0.002-0.023L440.979,213.92
				l14.347-1.318l22.935,249.749l-14.346,1.318L457.77,396.757z M456.315,192.876l1.168,12.499l-20.479,1.881l-1.168-12.499
				L456.315,192.876z M462.699,470.811l19.559-1.797l2.034,33.635c0.096,1.585-0.451,3.095-1.54,4.252s-2.564,1.794-4.153,1.794
				c-2.517,0-4.706-1.616-5.448-4.021L462.699,470.811z M418.85,82.442c0-9.342,7.6-16.942,16.941-16.942s16.942,7.6,16.942,16.942
				c0,9.341-7.601,16.941-16.942,16.941S418.85,91.783,418.85,82.442z M435.791,106.383c3.411,0,6.656-0.722,9.596-2.013
				l7.509,81.791l-14.347,1.318l-7.489-81.567C432.59,106.22,434.171,106.383,435.791,106.383z M384.046,490.696
				c1.671-12.576,12.165-22.685,24.57-23.151l-13.644,23.151H384.046z M409.509,450.973c2.829,0,5.633,0.284,8.381,0.835
				l-5.228,8.871c-1.041-0.102-2.094-0.158-3.153-0.158c-16.581,0-30.752,13.493-32.515,30.176h-9.577
				C369.226,468.83,387.758,450.973,409.509,450.973z M123.325,534.5c-16.319,0-29.596-13.276-29.596-29.596
				s13.276-29.597,29.596-29.597c10.947,0,20.836,6.021,25.966,15.389h-25.966c-7.834,0-14.208,6.374-14.208,14.208
				s6.374,14.207,14.208,14.207h25.966C144.161,528.479,134.272,534.5,123.325,534.5z M423.53,512.111H123.325
				c-3.975,0-7.208-3.233-7.208-7.207c0-3.975,3.233-7.208,7.208-7.208h273.629c0.005,0,0.01,0.001,0.015,0.001
				c0.005,0,0.01-0.001,0.015-0.001h24.831c0.005,0,0.01,0.001,0.015,0.001c0.005,0,0.01-0.001,0.015-0.001h1.685V512.111z
				 M419.833,490.696h-16.736l14.334-24.322c0.005-0.008,0.01-0.017,0.015-0.025l8.861-15.035c0.012-0.021,0.025-0.041,0.036-0.062
				l25.438-43.163l2.255,24.56L419.833,490.696z M477.648,534.5c-16.319,0-29.597-13.276-29.597-29.596
				c0-8.871,4.054-17.265,10.796-22.837l7.613,24.67c1.653,5.357,6.531,8.957,12.138,8.957c3.488,0,6.86-1.457,9.251-3.996
				c2.39-2.54,3.64-5.992,3.429-9.473l-1.471-24.32c10.47,4.706,17.437,15.201,17.437,26.999
				C507.244,521.224,493.968,534.5,477.648,534.5z"/>
		</g>
	</g>
</g>
</svg>
